<svg xmlns="http://www.w3.org/2000/svg" viewBox="0 0 1200 420" width="1200" height="420">
  <defs>
    <radialGradient id="bg3" cx="70%" cy="50%" r="55%">
      <stop offset="0%" stop-color="#0a1f14"/>
      <stop offset="100%" stop-color="#040d08"/>
    </radialGradient>
    <radialGradient id="screen-glow" cx="50%" cy="50%" r="50%">
      <stop offset="0%" stop-color="#10b981" stop-opacity="0.2"/>
      <stop offset="100%" stop-color="#10b981" stop-opacity="0"/>
    </radialGradient>
  </defs>
  <rect width="1200" height="420" fill="url(#bg3)"/>
  <!-- Grade de fundo tipo terminal -->
  <line x1="0" y1="70" x2="1200" y2="70" stroke="#10b981" stroke-width="0.3" opacity="0.15"/>
  <line x1="0" y1="140" x2="1200" y2="140" stroke="#10b981" stroke-width="0.3" opacity="0.15"/>
  <line x1="0" y1="210" x2="1200" y2="210" stroke="#10b981" stroke-width="0.3" opacity="0.15"/>
  <line x1="0" y1="280" x2="1200" y2="280" stroke="#10b981" stroke-width="0.3" opacity="0.15"/>
  <line x1="0" y1="350" x2="1200" y2="350" stroke="#10b981" stroke-width="0.3" opacity="0.15"/>
  <line x1="200" y1="0" x2="200" y2="420" stroke="#10b981" stroke-width="0.3" opacity="0.15"/>
  <line x1="400" y1="0" x2="400" y2="420" stroke="#10b981" stroke-width="0.3" opacity="0.15"/>
  <line x1="600" y1="0" x2="600" y2="420" stroke="#10b981" stroke-width="0.3" opacity="0.15"/>
  <line x1="800" y1="0" x2="800" y2="420" stroke="#10b981" stroke-width="0.3" opacity="0.15"/>
  <line x1="1000" y1="0" x2="1000" y2="420" stroke="#10b981" stroke-width="0.3" opacity="0.15"/>
  <!-- Painel principal do dashboard -->
  <rect x="50" y="40" width="500" height="340" rx="10" fill="#0f2a1c" stroke="#10b981" stroke-width="1.5" opacity="0.95"/>
  <rect x="50" y="40" width="500" height="35" rx="10" fill="#1b3a26"/>
  <circle cx="75" cy="57" r="6" fill="#dc2626" opacity="0.8"/>
  <circle cx="95" cy="57" r="6" fill="#f97316" opacity="0.8"/>
  <circle cx="115" cy="57" r="6" fill="#10b981" opacity="0.8"/>
  <text x="290" y="62" font-family="monospace" font-size="11" fill="#6ee7b7" text-anchor="middle">ORBITAL WATCH — PAINEL DE CONTROLE</text>
  <!-- Título do painel -->
  <text x="75" y="105" font-family="monospace" font-size="10" fill="#6ee7b7" opacity="0.7">STATUS DOS SATÉLITES BRASILEIROS</text>
  <!-- Cards de status -->
  <!-- CBERS-4A -->
  <rect x="70" y="118" width="140" height="80" rx="6" fill="#1b3a26" stroke="#10b981" stroke-width="1"/>
  <text x="85" y="138" font-family="monospace" font-size="9" fill="#6ee7b7">CBERS-4A</text>
  <circle cx="195" cy="135" r="5" fill="#10b981"/>
  <text x="85" y="158" font-family="monospace" font-size="8" fill="#94a3b8">ALT: 628 km</text>
  <text x="85" y="173" font-family="monospace" font-size="8" fill="#94a3b8">RISCO: BAIXO</text>
  <text x="85" y="188" font-family="monospace" font-size="8" fill="#10b981">● OPERACIONAL</text>
  <!-- Amazonia-1 -->
  <rect x="225" y="118" width="140" height="80" rx="6" fill="#1b3a26" stroke="#f97316" stroke-width="1"/>
  <text x="240" y="138" font-family="monospace" font-size="9" fill="#6ee7b7">AMAZONIA-1</text>
  <circle cx="350" cy="135" r="5" fill="#f97316"/>
  <text x="240" y="158" font-family="monospace" font-size="8" fill="#94a3b8">ALT: 752 km</text>
  <text x="240" y="173" font-family="monospace" font-size="8" fill="#94a3b8">RISCO: MÉDIO</text>
  <text x="240" y="188" font-family="monospace" font-size="8" fill="#f97316">● ATENÇÃO</text>
  <!-- SCD-2 -->
  <rect x="380" y="118" width="140" height="80" rx="6" fill="#1b3a26" stroke="#10b981" stroke-width="1"/>
  <text x="395" y="138" font-family="monospace" font-size="9" fill="#6ee7b7">SCD-2</text>
  <circle cx="505" cy="135" r="5" fill="#10b981"/>
  <text x="395" y="158" font-family="monospace" font-size="8" fill="#94a3b8">ALT: 750 km</text>
  <text x="395" y="173" font-family="monospace" font-size="8" fill="#94a3b8">RISCO: BAIXO</text>
  <text x="395" y="188" font-family="monospace" font-size="8" fill="#10b981">● OPERACIONAL</text>
  <!-- Gráfico de barras de risco -->
  <text x="75" y="230" font-family="monospace" font-size="10" fill="#6ee7b7" opacity="0.7">HISTÓRICO DE CONJUNÇÕES (7 DIAS)</text>
  <!-- Eixo Y -->
  <line x1="100" y1="245" x2="100" y2="345" stroke="#6ee7b7" stroke-width="1" opacity="0.4"/>
  <!-- Eixo X -->
  <line x1="100" y1="345" x2="510" y2="345" stroke="#6ee7b7" stroke-width="1" opacity="0.4"/>
  <!-- Barras -->
  <rect x="120" y="310" width="40" height="35" fill="#10b981" opacity="0.7" rx="2"/>
  <rect x="175" y="290" width="40" height="55" fill="#10b981" opacity="0.7" rx="2"/>
  <rect x="230" y="275" width="40" height="70" fill="#f97316" opacity="0.8" rx="2"/>
  <rect x="285" y="295" width="40" height="50" fill="#10b981" opacity="0.7" rx="2"/>
  <rect x="340" y="260" width="40" height="85" fill="#dc2626" opacity="0.8" rx="2"/>
  <rect x="395" y="285" width="40" height="60" fill="#f97316" opacity="0.8" rx="2"/>
  <rect x="450" y="300" width="40" height="45" fill="#10b981" opacity="0.7" rx="2"/>
  <!-- Labels do eixo X -->
  <text x="130" y="358" font-family="monospace" font-size="8" fill="#6ee7b7" opacity="0.6">Seg</text>
  <text x="185" y="358" font-family="monospace" font-size="8" fill="#6ee7b7" opacity="0.6">Ter</text>
  <text x="240" y="358" font-family="monospace" font-size="8" fill="#6ee7b7" opacity="0.6">Qua</text>
  <text x="295" y="358" font-family="monospace" font-size="8" fill="#6ee7b7" opacity="0.6">Qui</text>
  <text x="350" y="358" font-family="monospace" font-size="8" fill="#6ee7b7" opacity="0.6">Sex</text>
  <text x="405" y="358" font-family="monospace" font-size="8" fill="#6ee7b7" opacity="0.6">Sáb</text>
  <text x="460" y="358" font-family="monospace" font-size="8" fill="#6ee7b7" opacity="0.6">Dom</text>
  <!-- Painel lateral de alertas -->
  <rect x="580" y="40" width="570" height="340" rx="10" fill="#0f2a1c" stroke="#10b981" stroke-width="1.5" opacity="0.95"/>
  <rect x="580" y="40" width="570" height="35" rx="10" fill="#1b3a26"/>
  <text x="870" y="62" font-family="monospace" font-size="11" fill="#6ee7b7" text-anchor="middle">LOG DE ALERTAS EM TEMPO REAL</text>
  <!-- Linhas de log -->
  <text x="600" y="100" font-family="monospace" font-size="9" fill="#6ee7b7" opacity="0.5">[2026-05-29 07:32:11]</text>
  <text x="780" y="100" font-family="monospace" font-size="9" fill="#10b981">BAIXO — CBERS-4A dist: 8.4km</text>
  <text x="600" y="118" font-family="monospace" font-size="9" fill="#6ee7b7" opacity="0.5">[2026-05-29 07:28:44]</text>
  <text x="780" y="118" font-family="monospace" font-size="9" fill="#f97316">MÉDIO — AMAZONIA-1 dist: 2.1km</text>
  <text x="600" y="136" font-family="monospace" font-size="9" fill="#6ee7b7" opacity="0.5">[2026-05-29 07:15:02]</text>
  <text x="780" y="136" font-family="monospace" font-size="9" fill="#10b981">BAIXO — SCD-2 dist: 15.3km</text>
  <text x="600" y="154" font-family="monospace" font-size="9" fill="#6ee7b7" opacity="0.5">[2026-05-29 06:59:30]</text>
  <text x="780" y="154" font-family="monospace" font-size="9" fill="#dc2626">ALTO — AMAZONIA-1 dist: 0.8km</text>
  <text x="600" y="172" font-family="monospace" font-size="9" fill="#6ee7b7" opacity="0.5">[2026-05-29 06:44:17]</text>
  <text x="780" y="172" font-family="monospace" font-size="9" fill="#10b981">BAIXO — CBERS-4A dist: 22.7km</text>
  <text x="600" y="190" font-family="monospace" font-size="9" fill="#6ee7b7" opacity="0.5">[2026-05-29 06:31:55]</text>
  <text x="780" y="190" font-family="monospace" font-size="9" fill="#f97316">MÉDIO — SCD-2 dist: 3.6km</text>
  <text x="600" y="208" font-family="monospace" font-size="9" fill="#6ee7b7" opacity="0.5">[2026-05-29 06:20:08]</text>
  <text x="780" y="208" font-family="monospace" font-size="9" fill="#10b981">BAIXO — CBERS-4A dist: 41.2km</text>
  <!-- Cursor piscante simulado -->
  <rect x="600" y="225" width="8" height="12" fill="#10b981" opacity="0.9">
    <animate attributeName="opacity" values="0.9;0;0.9" dur="1.2s" repeatCount="indefinite"/>
  </rect>
  <!-- Resumo do dia -->
  <rect x="595" y="260" width="540" height="100" rx="6" fill="#1b3a26"/>
  <text x="615" y="282" font-family="monospace" font-size="10" fill="#6ee7b7">RESUMO DO DIA — 29/05/2026</text>
  <text x="615" y="302" font-family="monospace" font-size="9" fill="#94a3b8">Total de conjunções analisadas:</text>
  <text x="900" y="302" font-family="monospace" font-size="9" fill="#f1f5f9">247</text>
  <text x="615" y="318" font-family="monospace" font-size="9" fill="#94a3b8">Alertas ALTO ou CRÍTICO:</text>
  <text x="900" y="318" font-family="monospace" font-size="9" fill="#dc2626">3</text>
  <text x="615" y="334" font-family="monospace" font-size="9" fill="#94a3b8">Satélites monitorados:</text>
  <text x="900" y="334" font-family="monospace" font-size="9" fill="#10b981">3 / 3 operacionais</text>
  <text x="615" y="350" font-family="monospace" font-size="9" fill="#94a3b8">Próxima análise SGP4:</text>
  <text x="900" y="350" font-family="monospace" font-size="9" fill="#f1f5f9">07:45:00</text>
</svg>
